<?xml version="1.0" encoding="UTF-8" standalone="no"?>
<svg
   viewBox="0 0 20 20"
   width="20"
   height="20"
   version="1.1"
   id="svg14"
   sodipodi:docname="noTranslation.svg"
   inkscape:version="1.2.2 (b0a8486541, 2022-12-01)"
   xmlns:inkscape="http://www.inkscape.org/namespaces/inkscape"
   xmlns:sodipodi="http://sodipodi.sourceforge.net/DTD/sodipodi-0.dtd"
   xmlns="http://www.w3.org/2000/svg"
   xmlns:svg="http://www.w3.org/2000/svg">
  <defs
     id="defs18" />
  <sodipodi:namedview
     id="namedview16"
     pagecolor="#ffffff"
     bordercolor="#666666"
     borderopacity="1.0"
     inkscape:showpageshadow="2"
     inkscape:pageopacity="0.0"
     inkscape:pagecheckerboard="0"
     inkscape:deskcolor="#d1d1d1"
     showgrid="false"
     inkscape:zoom="26.269017"
     inkscape:cx="14.80832"
     inkscape:cy="11.62967"
     inkscape:window-width="1920"
     inkscape:window-height="1008"
     inkscape:window-x="1920"
     inkscape:window-y="0"
     inkscape:window-maximized="1"
     inkscape:current-layer="g12"
     showguides="false" />
  <title
     id="title2">No Translation</title>
  <!-- Parent group for centring both icons -->
  <g
     transform="translate(10,10)"
     id="g12"
     inkscape:label="no-translation">
    <!-- Translation icon, scaled down to 80% -->
    <!-- Close icon -->
    <g
       id="g2495">
      <path
         d="m 20,18 h -1.44 a 0.6,0.6 0 0 1 -0.4,-0.12 0.8,0.8 0 0 1 -0.23,-0.31 L 17,15 h -5 l -1,2.54 a 0.8,0.8 0 0 1 -0.22,0.3 0.6,0.6 0 0 1 -0.4,0.14 H 9 L 13.55,6.51 h 1.89 z M 16.47,13.69 14.89,9.5 A 12,12 0 0 1 14.5,8.26 q -0.09,0.37 -0.19,0.69 l -0.19,0.56 -1.58,4.19 z m -6.3,-1.58 A 13.4,13.4 0 0 1 7.26,10.7 11.46,11.46 0 0 0 10.07,5.33 H 12 V 4 H 7.31 A 4,4 0 0 0 7.11,3.44 C 6.87,2.79 6.6,2 6.6,2 L 5.13,2.5 c 0,0 0.4,0.89 0.6,1.5 H 0 V 5.33 H 2.15 A 11.23,11.23 0 0 0 5,10.7 17.2,17.2 0 0 1 0,12.8 q 0.56,0.82 0.87,1.38 a 23.3,23.3 0 0 0 5.22,-2.51 15.6,15.6 0 0 0 3.56,1.77 z M 3.63,5.33 H 8.54 A 8.1,8.1 0 0 1 6.09,9.78 9.1,9.1 0 0 1 3.63,5.33"
         id="path4"
         transform="matrix(0.89044375,0,0,0.97562586,-8.9044375,-9.7563665)" />
      <g
         id="path1456">
        <path
           style="color:#000000;fill:#000000;-inkscape-stroke:none"
           d="M -8.9199219,-9.9335938 -10.125,-8.7265625 8.6875,10.068359 9.8925781,8.8613281 Z"
           id="path2482" />
      </g>
      <g
         id="path1456-7">
        <path
           style="color:#000000;fill:#ffffff;-inkscape-stroke:none"
           d="M -7.6757812,-11.064453 -8.8808594,-9.8574219 9.9316406,8.9375 11.136719,7.7324219 Z"
           id="path2488" />
      </g>
    </g>
  </g>
</svg>
